<?xml version="1.0" encoding="utf-8"?>
<!-- Generator: Adobe Illustrator 28.0.0, SVG Export Plug-In . SVG Version: 6.00 Build 0)  -->
<svg version="1.1" id="Layer_1" xmlns="http://www.w3.org/2000/svg" xmlns:xlink="http://www.w3.org/1999/xlink" x="0px" y="0px"
	 viewBox="0 0 564.5 138" style="enable-background:new 0 0 564.5 138;" xml:space="preserve">
<style type="text/css">
	.st0{display:none;}
	.st1{display:inline;}
	.st2{fill:#5C596A;}
	.st3{font-family:'Linotte-SemiBold';}
	.st4{font-size:102px;}
	.st5{letter-spacing:-4;}
	.st6{fill:#BCE4FA;stroke:#00B6ED;stroke-width:0.25;stroke-miterlimit:10;}
	.st7{display:inline;fill:#BCE4FA;stroke:#00B6ED;stroke-width:0.25;stroke-miterlimit:10;}
	.st8{fill:none;stroke:#00B6ED;stroke-width:0.5;stroke-miterlimit:10;}
	.st9{fill:#FFFFFF;}
	.st10{display:inline;fill:#E6235C;}
	.st11{display:inline;fill:#FDC605;}
	.st12{display:inline;fill:none;stroke:#00B6ED;stroke-width:0.25;stroke-miterlimit:10;}
	.st13{display:inline;fill:none;stroke:#00B6ED;stroke-width:0.5;stroke-miterlimit:10;}
	.st14{fill:none;stroke:#00B6ED;stroke-width:0.25;stroke-miterlimit:10;}
	.st15{display:inline;fill:#FBC50B;}
</style>
<g id="TYPE" class="st0">
	<g class="st1">
		<text transform="matrix(1 0 0 1 81.381 99.7189)" class="st2 st3 st4 st5">pwrsaúde</text>
	</g>
</g>
<g id="Layer_5" class="st0">
	<g class="st1">
		<path class="st6" d="M423.1,50.8c-0.1,6.1-0.2,10.7-0.2,18.7c0,7,2,13.8,9.6,13.8c9.5,0,12.4-7.4,12.5-18.3V50.6
			c0-3.9,2.8-5.7,5.9-5.7c3.5,0,5.6,1.5,5.6,5.5c0,1.3-0.2,13.5-0.1,23.6c0.1,7,0.4,12.2,0.5,14.2c0.1,3.1-2.5,4.5-5.5,4.5
			s-4.7-1.3-5.1-3.9c-0.3-1.9-0.2-3.5-0.5-5.6c-3,5.9-8.1,9.9-15.5,9.9c-13.1,0-18.7-9.2-18.7-22c0-5.7,0.1-15,0.1-20.3
			c0-4.2,2.5-5.9,6.3-5.9C421.4,45.1,423.1,46.8,423.1,50.8z"/>
		<path class="st6" d="M428.7,40.2c-1.5,0-4.2-1.9-4.2-4c0-0.9,0.4-1.7,1-2.7c3.1-3.6,5.5-6.2,9.2-10.6c1-1.2,2.3-2.1,3.8-2.1
			c2.4,0,5.3,2.4,5.3,5.1c0,1.1-0.7,2.2-1.6,3.3c-3.8,4-6.4,6.4-10.5,9.9C430.8,39.8,429.9,40.2,428.7,40.2z"/>
	</g>
	<path class="st7" d="M251.6,45c2.4,0,4.5,1.2,5.4,3.4c3.7,10.8,7,21.3,10.2,30.2c2.3-8.3,6.9-28.1,7.5-30.1
		c0.6-2.5,1.9-3.6,4.5-3.6c2.5,0,6,1.7,6,4.6c0,0.2-0.1,0.9-0.2,1.1c-1.7,5.9-4.9,18.3-10.2,36.6c-1.1,3.4-2.2,5.6-6.6,5.6
		s-5.9-2.7-7.6-7.9l-9-25.1l-9,25.1c-1.8,5.2-3.2,7.9-7.6,7.9s-5.6-2.3-6.6-5.6c-5.4-18.3-8.6-30.7-10.2-36.6
		c-0.1-0.2-0.2-0.9-0.2-1.1c0-2.9,3.5-4.6,6-4.6s3.9,1.1,4.5,3.6c0.6,1.9,5.2,21.8,7.5,30.1c3.2-8.9,6.5-19.4,10.2-30.2
		C247.1,46.3,249.1,45,251.6,45L251.6,45z"/>
	<path class="st7" d="M503.4,93.2c-2.7,0-4.4-1.1-4.8-3.7l-0.3-4.7c-3.1,5.3-9.1,8.5-15.7,8.5c-13.5,0-21.8-10.5-21.8-23.9
		c0-14,10-24.9,23.9-24.9c5.8,0,10.6,2.3,13.5,6.3c0-2.2-0.1-6-0.1-9.6c0-3.5-0.2-9.8-0.2-14.9c0-3.7,2-5.6,6.3-5.5
		c3.3,0,5,1.7,5,5.4l-0.1,41.9l0.1,19.9C508.9,91.8,506.5,93.2,503.4,93.2z M484.5,83.4c7.3,0,13.5-6,13.5-14.7
		c0-9.2-5-14.3-12.7-14.3c-7.5,0-13.4,6.3-13.4,15.2C472,77.8,477.8,83.4,484.5,83.4z"/>
	<path class="st7" d="M535.8,83.1c3.7,0,7.2-1.2,9.8-2.8c1.2-0.7,2.4-1.3,3.9-1.3c2.4,0,4.6,2.5,4.6,5.3c0,1.9-1.2,3.5-3,4.7
		c-3.7,2.4-8.4,4.1-16.2,4.1c-12.5,0-22.3-10.1-22.5-22.4c0-14.3,10.1-25.8,23.1-25.8c11.8,0,20.3,9.4,20.3,18.7
		c0,5.3-0.8,7.9-7.8,8c-5.6,0.2-12.5,0.1-24.4,0.2C524,78,529,83.1,535.8,83.1z M523.7,64.8c5.2,0,16.3-0.1,20.5-0.4
		c0.7-0.1,1.2-0.4,1.2-0.9c0-5.6-4.6-9.5-9.7-9.5C529,54,524.3,59.4,523.7,64.8z"/>
	<path class="st7" d="M406.5,75c0,4.4,0.1,8.7,0.4,13.2c0,3.7-2.9,4.7-5.8,4.7c-3.4,0-4.3-2.6-5-7.9c-3.1,5.3-8.4,8.2-15.1,8.2
		c-13.6,0-22.2-10.3-22.2-22.8c0-15,10.3-25.4,23.6-25.4c5.7,0,10.9,2.6,13.9,7.2c0.2-1.2,0.4-2.9,0.6-3.8c0.7-2,2.2-3.2,4.5-3.2
		c4.1,0,5.3,2.4,5.3,6.3l-0.1,7.9L406.5,75z M382.4,83.6c7.6,0,13.4-5.8,13.4-14.5c0-9.4-6.3-14.4-12.9-14.4
		c-7.4,0-12.8,6.3-12.8,15.4C370.1,77.9,375.6,83.6,382.4,83.6z"/>
	<path class="st7" d="M351.6,46.9c1.7,0.8,3.1,2,3.1,4c0,2.9-1.3,4.8-4.4,4.8c-2.9,0-6.5-2.4-12.3-2.4c-4.7,0-8.6,2.3-8.6,5.8
		c0,3.8,4.6,4.1,9.6,4.8c9.7,1.3,17.1,4.4,17.1,13.9c0,9.7-7.5,15.2-19.3,15.2c-8.9,0-18-3.1-18-6.7c0-2.9,1.1-5.6,4.4-5.6
		c3.7,0,7.6,3,14.7,3c4.5,0,8.1-2,8.1-5.7c0-3.9-3.5-4.9-9.8-5.9c-8.1-1.1-16.9-3.3-16.9-12.6c0-9.1,9.1-15.2,18.6-15.2
		C343.8,44.6,348.5,45.5,351.6,46.9z"/>
	<path class="st7" d="M294.2,45.4c2.3,0,3.9,1.2,4.3,3.7l0.4,5.6c3-6.4,8.8-9.7,13.9-9.7c3.6,0,5.4,1.5,5.4,5.3
		c0,2.7-1.3,5.3-4.6,5.3h-1.7c-6.7,0-12.3,5.9-12.3,16.2c0,5.1,0.2,10.7,0.1,16.5c-0.1,3.4-2.4,4.7-5.7,4.7c-3.5,0-5.5-1.4-5.4-6.2
		c0.1-7.9,0.3-17.9,0.3-25.2c0-3.5-0.1-7.3-0.1-10.9C288.5,47.2,290.7,45.4,294.2,45.4z"/>
	<path class="st7" d="M175.3,44.9c2.7,0,4.4,1.1,4.8,3.7l0.3,4.7c3.1-5.3,9-8.5,15.6-8.5c13.4,0,22,10.4,22,23.7
		c0,13.9-10.2,24.7-24,24.7c-5.7,0-10.5-2.2-13.4-6.2c0,2.1,0.1,5.9,0.1,9.5c0,3.5,0.2,10.4,0.2,15.4c0,3.7-1.9,5.5-6.2,5.4
		c-3.3,0-5-1.7-5-5.3l0.1-42.2L169.6,50C169.7,46.3,172.1,44.9,175.3,44.9z M193.9,54.6c-7.2,0-13.4,5.9-13.4,14.6
		c0,9.1,5,14.2,12.5,14.2c7.4,0,13.6-6.2,13.6-15.1C206.7,60.2,200.6,54.6,193.9,54.6z"/>
	<g class="st1">
		<circle class="st8" cx="234" cy="69.2" r="64.4"/>
	</g>
	<g class="st1">
		<circle class="st8" cx="362.7" cy="69.2" r="64.4"/>
	</g>
	<g class="st1">
		<circle class="st8" cx="491.4" cy="69.2" r="64.4"/>
	</g>
</g>
<g>
	<path class="st9" d="M36.7,58.1v14.7c0,2.6,2.1,4.7,4.7,4.7H61v19.8c0,2.6,2.1,4.7,4.7,4.7h14.4c2.6,0,4.7-2.1,4.7-4.7V77.5h19.6
		c2.6,0,4.7-2.1,4.7-4.7V58.1c0-2.6-2.1-4.7-4.7-4.7H84.8V33.9c0-2.6-2.1-4.7-4.7-4.7H65.7c-2.6,0-4.7,2.1-4.7,4.7v19.4H41.5
		C38.8,53.3,36.7,55.5,36.7,58.1z"/>
	<path class="st9" d="M104.1,8.9c-2.2-1.2-5-0.4-6.3,1.8c-1.3,2.3-0.5,5.2,1.7,6.5l0,0c16.9,9.3,28.4,27.4,28.4,48.1
		c0,30.3-24.6,54.9-54.9,54.9S18.1,95.6,18.1,65.3c0-20.7,11.5-38.8,28.4-48.1c2.3-1.3,3-4.2,1.7-6.5S44,7.7,41.7,9
		C21.9,20,8.5,41.1,8.5,65.3c0,35.6,28.8,64.4,64.4,64.4s64.4-28.8,64.4-64.4C137.4,41,124,19.9,104.1,8.9z"/>
</g>
<g>
	<path class="st9" d="M250.8,41c2.4,0,4.4,1.2,5.3,3.4c3.7,10.8,6.9,21.3,10.1,30.2c2.3-8.3,6.9-28.1,7.4-30.1
		c0.6-2.5,1.9-3.6,4.4-3.6s6,1.7,6,4.6c0,0.2-0.1,0.9-0.2,1.1c-1.6,5.9-4.8,18.3-10.1,36.6c-1.1,3.4-2.2,5.6-6.6,5.6
		c-4.3,0-5.8-2.7-7.5-7.9l-8.9-25.1l-8.9,25.1c-1.7,5.2-3.2,7.9-7.5,7.9s-5.5-2.3-6.6-5.6c-5.3-18.3-8.5-30.7-10.1-36.6
		c-0.1-0.2-0.2-0.9-0.2-1.1c0-2.9,3.5-4.6,6-4.6s3.9,1.1,4.4,3.6c0.6,1.9,5.1,21.8,7.4,30.1c3.2-8.9,6.5-19.4,10.1-30.2
		C246.4,42.3,248.4,41,250.8,41L250.8,41z"/>
	<path class="st9" d="M292.5,41.4c2.3,0,3.9,1.2,4.3,3.7l0.4,5.6c3-6.4,8.8-9.7,13.9-9.7c3.6,0,5.4,1.5,5.4,5.3
		c0,2.7-1.3,5.3-4.6,5.3h-1.7c-6.7,0-12.3,5.9-12.3,16.2c0,5.1,0.2,10.7,0.1,16.5c-0.1,3.4-2.4,4.7-5.7,4.7c-3.5,0-5.5-1.4-5.4-6.2
		c0.1-7.9,0.3-17.9,0.3-25.2c0-3.5-0.1-7.3-0.1-10.9C286.9,43.2,289,41.4,292.5,41.4z"/>
	<path class="st9" d="M175.3,40.9c2.7,0,4.4,1.1,4.8,3.7l0.3,4.7c3.1-5.3,9-8.5,15.6-8.5c13.4,0,22,10.4,22,23.7
		c0,13.9-10.2,24.7-24,24.7c-5.7,0-10.5-2.2-13.4-6.2c0,2.1,0.1,5.9,0.1,9.5c0,3.5,0.2,10.4,0.2,15.4c0,3.7-1.9,5.5-6.2,5.4
		c-3.3,0-5-1.7-5-5.3l0.1-42.2L169.6,46C169.7,42.3,172.1,40.9,175.3,40.9z M193.9,50.6c-7.2,0-13.4,5.9-13.4,14.6
		c0,9.1,5,14.2,12.5,14.2c7.4,0,13.6-6.2,13.6-15.1C206.7,56.2,200.6,50.6,193.9,50.6z"/>
	<g>
		<g>
			<path class="st9" d="M423.1,46.8c-0.1,6.1-0.2,10.7-0.2,18.7c0,7,2,13.8,9.6,13.8c9.5,0,12.4-7.4,12.5-18.3V46.6
				c0-3.9,2.8-5.7,5.9-5.7c3.5,0,5.6,1.5,5.6,5.5c0,1.3-0.2,13.5-0.1,23.6c0.1,7,0.4,12.2,0.5,14.2c0.1,3.1-2.5,4.5-5.5,4.5
				s-4.7-1.3-5.1-3.9c-0.3-1.9-0.2-3.5-0.5-5.6c-3,5.9-8.1,9.9-15.5,9.9c-13.1,0-18.7-9.2-18.7-22c0-5.7,0.1-15,0.1-20.3
				c0-4.2,2.5-5.9,6.3-5.9C421.4,41.1,423.1,42.8,423.1,46.8z"/>
			<path class="st9" d="M428.7,36.2c-1.5,0-4.2-1.9-4.2-4c0-0.9,0.4-1.7,1-2.7c3.1-3.6,5.5-6.2,9.2-10.6c1-1.2,2.3-2.1,3.8-2.1
				c2.4,0,5.3,2.4,5.3,5.1c0,1.1-0.7,2.2-1.6,3.3c-3.8,4-6.4,6.4-10.5,9.9C430.8,35.8,429.9,36.2,428.7,36.2z"/>
		</g>
	</g>
	<path class="st9" d="M503.4,89.2c-2.7,0-4.4-1.1-4.8-3.7l-0.3-4.7c-3.1,5.3-9.1,8.5-15.7,8.5c-13.5,0-21.8-10.5-21.8-23.9
		c0-14,10-24.9,23.9-24.9c5.8,0,10.6,2.3,13.5,6.3c0-2.2-0.1-6-0.1-9.6c0-3.5-0.2-9.8-0.2-14.9c0-3.7,2-5.6,6.3-5.5
		c3.3,0,5,1.7,5,5.4l-0.1,41.9l0.1,19.9C508.9,87.8,506.5,89.2,503.4,89.2z M484.5,79.4c7.3,0,13.5-6,13.5-14.7
		c0-9.2-5-14.3-12.7-14.3c-7.5,0-13.4,6.3-13.4,15.2C472,73.8,477.8,79.4,484.5,79.4z"/>
	<path class="st9" d="M535.8,79.1c3.7,0,7.2-1.2,9.8-2.8c1.2-0.7,2.4-1.3,3.9-1.3c2.4,0,4.6,2.5,4.6,5.3c0,1.9-1.2,3.5-3,4.7
		c-3.7,2.4-8.4,4.1-16.2,4.1c-12.5,0-22.3-10.1-22.5-22.4c0-14.3,10.1-25.8,23.1-25.8c11.8,0,20.3,9.4,20.3,18.7
		c0,5.3-0.8,7.9-7.8,8c-5.6,0.2-12.5,0.1-24.4,0.2C524,74,529,79.1,535.8,79.1z M523.7,60.8c5.2,0,16.3-0.1,20.5-0.4
		c0.7-0.1,1.2-0.4,1.2-0.9c0-5.6-4.6-9.5-9.7-9.5C529,50,524.3,55.4,523.7,60.8z"/>
	<path class="st9" d="M406.5,71c0,4.4,0.1,8.7,0.4,13.2c0,3.7-2.9,4.7-5.8,4.7c-3.4,0-4.3-2.6-5-7.9c-3.1,5.3-8.4,8.2-15.1,8.2
		c-13.6,0-22.2-10.3-22.2-22.8c0-15,10.3-25.4,23.6-25.4c5.7,0,10.9,2.6,13.9,7.2c0.2-1.2,0.4-2.9,0.6-3.8c0.7-2,2.2-3.2,4.5-3.2
		c4.1,0,5.3,2.4,5.3,6.3l-0.1,7.9L406.5,71z M382.4,79.6c7.6,0,13.4-5.8,13.4-14.5c0-9.4-6.3-14.4-12.9-14.4
		c-7.4,0-12.8,6.3-12.8,15.4C370.1,73.9,375.6,79.6,382.4,79.6z"/>
	<path class="st9" d="M350.5,43.1c1.7,0.8,3.1,2,3.1,4c0,2.9-1.3,4.8-4.4,4.8c-2.9,0-6.5-2.4-12.3-2.4c-4.7,0-8.6,2.3-8.6,5.8
		c0,3.8,4.6,4.1,9.6,4.8c9.7,1.3,17.1,4.4,17.1,13.9c0,9.7-7.5,15.2-19.3,15.2c-8.9,0-18-3.1-18-6.7c0-2.9,1.1-5.6,4.4-5.6
		c3.7,0,7.6,3,14.7,3c4.5,0,8.1-2,8.1-5.7c0-3.9-3.5-4.9-9.8-5.9c-8.1-1.1-16.9-3.3-16.9-12.6c0-9.1,9.1-15.2,18.6-15.2
		C342.7,40.7,347.4,41.7,350.5,43.1z"/>
</g>
<g id="SYMBOL" class="st0">
	<path class="st10" d="M104.6,57.3H85V37.9c0-2.6-2.1-4.7-4.7-4.7H65.9c-2.6,0-4.7,2.1-4.7,4.7v19.4H41.5c-2.6,0-4.7,2.1-4.7,4.7
		v14.7c0,2.6,2.1,4.7,4.7,4.7h19.6v19.8c0,2.6,2.1,4.7,4.7,4.7h14.4c2.6,0,4.7-2.1,4.7-4.7V81.4h19.6c2.6,0,4.7-2.1,4.7-4.7V62
		C109.4,59.5,107.2,57.3,104.6,57.3z"/>
	<path class="st10" d="M104.1,12.9c-2.2-1.2-5-0.4-6.3,1.8c-1.3,2.3-0.5,5.2,1.7,6.5l0,0c16.9,9.3,28.4,27.4,28.4,48.1
		c0,30.3-24.6,54.9-54.9,54.9S18.1,99.6,18.1,69.3c0-20.7,11.5-38.8,28.4-48.1c2.3-1.3,3-4.2,1.7-6.5s-4.2-3-6.5-1.7
		C21.9,24,8.5,45.1,8.5,69.3c0,35.6,28.8,64.4,64.4,64.4s64.4-28.8,64.4-64.4C137.4,45,124,23.9,104.1,12.9z"/>
	<path class="st7" d="M104.6,57.3H85V37.9c0-2.6-2.1-4.7-4.7-4.7H65.9c-2.6,0-4.7,2.1-4.7,4.7v19.4H41.5c-2.6,0-4.7,2.1-4.7,4.7
		v14.7c0,2.6,2.1,4.7,4.7,4.7h19.6v19.8c0,2.6,2.1,4.7,4.7,4.7h14.4c2.6,0,4.7-2.1,4.7-4.7V81.4h19.6c2.6,0,4.7-2.1,4.7-4.7V62
		C109.4,59.5,107.2,57.3,104.6,57.3z"/>
	<path class="st11" d="M104.1,12.9c-2.2-1.2-5-0.4-6.3,1.8c-1.3,2.3-0.5,5.2,1.7,6.5l0,0c16.9,9.3,28.4,27.4,28.4,48.1
		c0,30.3-24.6,54.9-54.9,54.9S18.1,99.6,18.1,69.3c0-20.7,11.5-38.8,28.4-48.1c2.3-1.3,3-4.2,1.7-6.5s-4.2-3-6.5-1.7
		C21.9,24,8.5,45.1,8.5,69.3c0,35.6,28.8,64.4,64.4,64.4s64.4-28.8,64.4-64.4C137.4,45,124,23.9,104.1,12.9z"/>
	<path class="st7" d="M104.1,12.9c-2.2-1.2-5-0.4-6.3,1.8c-1.3,2.3-0.5,5.2,1.7,6.5l0,0c16.9,9.3,28.4,27.4,28.4,48.1
		c0,30.3-24.6,54.9-54.9,54.9S18.1,99.6,18.1,69.3c0-20.7,11.5-38.8,28.4-48.1c2.3-1.3,3-4.2,1.7-6.5s-4.2-3-6.5-1.7
		C21.9,24,8.5,45.1,8.5,69.3c0,35.6,28.8,64.4,64.4,64.4s64.4-28.8,64.4-64.4C137.4,45,124,23.9,104.1,12.9z"/>
	<path class="st11" d="M41.8,13"/>
	<circle class="st7" cx="101.9" cy="17.1" r="4.7"/>
	<circle class="st7" cx="44.2" cy="17.1" r="4.7"/>
	<line class="st12" x1="128" y1="14.5" x2="18.2" y2="14.5"/>
	<line class="st12" x1="128" y1="124.1" x2="18.2" y2="124.1"/>
	<line class="st13" x1="8.7" y1="105.9" x2="137.3" y2="105.9"/>
	<line class="st12" x1="36.8" y1="81.5" x2="109.3" y2="81.5"/>
	<line class="st12" x1="36.8" y1="57.3" x2="109.3" y2="57.3"/>
	<line class="st12" x1="18.2" y1="29.1" x2="128" y2="29.1"/>
	<line class="st13" x1="8.9" y1="33.2" x2="137.1" y2="33.2"/>
	<line class="st12" x1="18.2" y1="4.9" x2="18.2" y2="133.7"/>
	<line class="st13" x1="48.9" y1="4.9" x2="48.9" y2="133.7"/>
	<line class="st13" x1="97.2" y1="4.9" x2="97.2" y2="133.7"/>
	<line class="st12" x1="128" y1="4.9" x2="128" y2="133.7"/>
	<line class="st12" x1="65.8" y1="4.9" x2="65.8" y2="124.1"/>
	<line class="st13" x1="36.7" y1="4.9" x2="36.7" y2="133.7"/>
	<g class="st1">
		<line class="st14" x1="137.4" y1="21.2" x2="137.4" y2="117.8"/>
		<line class="st14" x1="127.9" y1="21.2" x2="127.9" y2="117.8"/>
		<line class="st14" x1="130.3" y1="21.2" x2="130.3" y2="117.8"/>
		<line class="st14" x1="135.1" y1="21.2" x2="135.1" y2="117.8"/>
		<line class="st14" x1="132.7" y1="21.2" x2="132.7" y2="117.8"/>
	</g>
	<line class="st12" x1="80.3" y1="4.7" x2="80.3" y2="124.1"/>
	<g class="st1">
		<circle class="st8" cx="73.1" cy="69.3" r="64.4"/>
	</g>
	<circle class="st12" cx="73.1" cy="69.3" r="54.9"/>
	<circle class="st12" cx="44.2" cy="17.1" r="4.7"/>
	<circle class="st12" cx="101.9" cy="17.1" r="4.7"/>
	<path class="st7" d="M41.8,13"/>
	<path class="st15" d="M41.8,13"/>
	<line class="st12" x1="61.1" y1="4.9" x2="61.1" y2="133.7"/>
	<line class="st12" x1="85" y1="6.4" x2="85" y2="90.2"/>
	<line class="st13" x1="109.4" y1="4.7" x2="109.4" y2="133.4"/>
	<circle class="st12" cx="65.8" cy="101.1" r="4.7"/>
	<circle class="st12" cx="80.3" cy="101.1" r="4.7"/>
	<circle class="st12" cx="41.5" cy="62.1" r="4.7"/>
	<path class="st12" d="M36.7,76.8c0-2.6,2.1-4.7,4.7-4.7s4.7,2.1,4.7,4.7s-2.1,4.7-4.7,4.7C38.8,81.5,36.7,79.4,36.7,76.8"/>
	<circle class="st12" cx="104.7" cy="62.1" r="4.7"/>
	<circle class="st12" cx="104.7" cy="76.8" r="4.7"/>
	<circle class="st12" cx="80.3" cy="37.9" r="4.7"/>
	<circle class="st12" cx="65.8" cy="37.9" r="4.7"/>
</g>
<g id="GRID" class="st0">
	<path class="st7" d="M250.8,45c2.4,0,4.4,1.2,5.3,3.4c3.7,10.8,6.9,21.3,10.1,30.2c2.3-8.3,6.9-28.1,7.4-30.1
		c0.6-2.5,1.9-3.6,4.4-3.6s6,1.7,6,4.6c0,0.2-0.1,0.9-0.2,1.1c-1.6,5.9-4.8,18.3-10.1,36.6c-1.1,3.4-2.2,5.6-6.6,5.6
		c-4.3,0-5.8-2.7-7.5-7.9l-8.9-25.1l-8.9,25.1c-1.7,5.2-3.2,7.9-7.5,7.9s-5.5-2.3-6.6-5.6c-5.3-18.3-8.5-30.7-10.1-36.6
		c-0.1-0.2-0.2-0.9-0.2-1.1c0-2.9,3.5-4.6,6-4.6s3.9,1.1,4.4,3.6c0.6,1.9,5.1,21.8,7.4,30.1c3.2-8.9,6.5-19.4,10.1-30.2
		C246.4,46.3,248.4,45,250.8,45L250.8,45z"/>
	<path class="st7" d="M292.5,45.4c2.3,0,3.9,1.2,4.3,3.7l0.4,5.6c3-6.4,8.8-9.7,13.9-9.7c3.6,0,5.4,1.5,5.4,5.3
		c0,2.7-1.3,5.3-4.6,5.3h-1.7c-6.7,0-12.3,5.9-12.3,16.2c0,5.1,0.2,10.7,0.1,16.5c-0.1,3.4-2.4,4.7-5.7,4.7c-3.5,0-5.5-1.4-5.4-6.2
		c0.1-7.9,0.3-17.9,0.3-25.2c0-3.5-0.1-7.3-0.1-10.9C286.9,47.2,289,45.4,292.5,45.4z"/>
	<line class="st12" x1="209.4" y1="21.1" x2="236.3" y2="117.2"/>
	<line class="st12" x1="205.6" y1="21.1" x2="232.5" y2="117.2"/>
	<g class="st1">
		<path class="st6" d="M423.1,50.8c-0.1,6.1-0.2,10.7-0.2,18.7c0,7,2,13.8,9.6,13.8c9.5,0,12.4-7.4,12.5-18.3V50.6
			c0-3.9,2.8-5.7,5.9-5.7c3.5,0,5.6,1.5,5.6,5.5c0,1.3-0.2,13.5-0.1,23.6c0.1,7,0.4,12.2,0.5,14.2c0.1,3.1-2.5,4.5-5.5,4.5
			s-4.7-1.3-5.1-3.9c-0.3-1.9-0.2-3.5-0.5-5.6c-3,5.9-8.1,9.9-15.5,9.9c-13.1,0-18.7-9.2-18.7-22c0-5.7,0.1-15,0.1-20.3
			c0-4.2,2.5-5.9,6.3-5.9C421.4,45.1,423.1,46.8,423.1,50.8z"/>
		<path class="st6" d="M428.7,40.2c-1.5,0-4.2-1.9-4.2-4c0-0.9,0.4-1.7,1-2.7c3.1-3.6,5.5-6.2,9.2-10.6c1-1.2,2.3-2.1,3.8-2.1
			c2.4,0,5.3,2.4,5.3,5.1c0,1.1-0.7,2.2-1.6,3.3c-3.8,4-6.4,6.4-10.5,9.9C430.8,39.8,429.9,40.2,428.7,40.2z"/>
	</g>
	<path class="st7" d="M503.4,93.2c-2.7,0-4.4-1.1-4.8-3.7l-0.3-4.7c-3.1,5.3-9.1,8.5-15.7,8.5c-13.5,0-21.8-10.5-21.8-23.9
		c0-14,10-24.9,23.9-24.9c5.8,0,10.6,2.3,13.5,6.3c0-2.2-0.1-6-0.1-9.6c0-3.5-0.2-9.8-0.2-14.9c0-3.7,2-5.6,6.3-5.5
		c3.3,0,5,1.7,5,5.4l-0.1,41.9l0.1,19.9C508.9,91.8,506.5,93.2,503.4,93.2z M484.5,83.4c7.3,0,13.5-6,13.5-14.7
		c0-9.2-5-14.3-12.7-14.3c-7.5,0-13.4,6.3-13.4,15.2C472,77.8,477.8,83.4,484.5,83.4z"/>
	<path class="st7" d="M535.8,83.1c3.7,0,7.2-1.2,9.8-2.8c1.2-0.7,2.4-1.3,3.9-1.3c2.4,0,4.6,2.5,4.6,5.3c0,1.9-1.2,3.5-3,4.7
		c-3.7,2.4-8.4,4.1-16.2,4.1c-12.5,0-22.3-10.1-22.5-22.4c0-14.3,10.1-25.8,23.1-25.8c11.8,0,20.3,9.4,20.3,18.7
		c0,5.3-0.8,7.9-7.8,8c-5.6,0.2-12.5,0.1-24.4,0.2C524,78,529,83.1,535.8,83.1z M523.7,64.8c5.2,0,16.3-0.1,20.5-0.4
		c0.7-0.1,1.2-0.4,1.2-0.9c0-5.6-4.6-9.5-9.7-9.5C529,54,524.3,59.4,523.7,64.8z"/>
	<path class="st7" d="M406.5,75c0,4.4,0.1,8.7,0.4,13.2c0,3.7-2.9,4.7-5.8,4.7c-3.4,0-4.3-2.6-5-7.9c-3.1,5.3-8.4,8.2-15.1,8.2
		c-13.6,0-22.2-10.3-22.2-22.8c0-15,10.3-25.4,23.6-25.4c5.7,0,10.9,2.6,13.9,7.2c0.2-1.2,0.4-2.9,0.6-3.8c0.7-2,2.2-3.2,4.5-3.2
		c4.1,0,5.3,2.4,5.3,6.3l-0.1,7.9L406.5,75z M382.4,83.6c7.6,0,13.4-5.8,13.4-14.5c0-9.4-6.3-14.4-12.9-14.4
		c-7.4,0-12.8,6.3-12.8,15.4C370.1,77.9,375.6,83.6,382.4,83.6z"/>
	<path class="st7" d="M350.5,47.1c1.7,0.8,3.1,2,3.1,4c0,2.9-1.3,4.8-4.4,4.8c-2.9,0-6.5-2.4-12.3-2.4c-4.7,0-8.6,2.3-8.6,5.8
		c0,3.8,4.6,4.1,9.6,4.8c9.7,1.3,17.1,4.4,17.1,13.9c0,9.7-7.5,15.2-19.3,15.2c-8.9,0-18-3.1-18-6.7c0-2.9,1.1-5.6,4.4-5.6
		c3.7,0,7.6,3,14.7,3c4.5,0,8.1-2,8.1-5.7c0-3.9-3.5-4.9-9.8-5.9c-8.1-1.1-16.9-3.3-16.9-12.6c0-9.1,9.1-15.2,18.6-15.2
		C342.7,44.7,347.4,45.7,350.5,47.1z"/>
	<path class="st7" d="M175.3,44.9c2.7,0,4.4,1.1,4.8,3.7l0.3,4.7c3.1-5.3,9-8.5,15.6-8.5c13.4,0,22,10.4,22,23.7
		c0,13.9-10.2,24.7-24,24.7c-5.7,0-10.5-2.2-13.4-6.2c0,2.1,0.1,5.9,0.1,9.5c0,3.5,0.2,10.4,0.2,15.4c0,3.7-1.9,5.5-6.2,5.4
		c-3.3,0-5-1.7-5-5.3l0.1-42.2L169.6,50C169.7,46.3,172.1,44.9,175.3,44.9z M193.9,54.6c-7.2,0-13.4,5.9-13.4,14.6
		c0,9.1,5,14.2,12.5,14.2c7.4,0,13.6-6.2,13.6-15.1C206.7,60.2,200.6,54.6,193.9,54.6z"/>
	<g class="st1">
		<path class="st6" d="M423.1,50.8c-0.1,6.1-0.2,10.7-0.2,18.7c0,7,2,13.8,9.6,13.8c9.5,0,12.4-7.4,12.5-18.3V50.6
			c0-3.9,2.8-5.7,5.9-5.7c3.5,0,5.6,1.5,5.6,5.5c0,1.3-0.2,13.5-0.1,23.6c0.1,7,0.4,12.2,0.5,14.2c0.1,3.1-2.5,4.5-5.5,4.5
			s-4.7-1.3-5.1-3.9c-0.3-1.9-0.2-3.5-0.5-5.6c-3,5.9-8.1,9.9-15.5,9.9c-13.1,0-18.7-9.2-18.7-22c0-5.7,0.1-15,0.1-20.3
			c0-4.2,2.5-5.9,6.3-5.9C421.4,45.1,423.1,46.8,423.1,50.8z"/>
		<path class="st6" d="M428.7,40.2c-1.5,0-4.2-1.9-4.2-4c0-0.9,0.4-1.7,1-2.7c3.1-3.6,5.5-6.2,9.2-10.6c1-1.2,2.3-2.1,3.8-2.1
			c2.4,0,5.3,2.4,5.3,5.1c0,1.1-0.7,2.2-1.6,3.3c-3.8,4-6.4,6.4-10.5,9.9C430.8,39.8,429.9,40.2,428.7,40.2z"/>
	</g>
	<path class="st7" d="M503.4,93.2c-2.7,0-4.4-1.1-4.8-3.7l-0.3-4.7c-3.1,5.3-9.1,8.5-15.7,8.5c-13.5,0-21.8-10.5-21.8-23.9
		c0-14,10-24.9,23.9-24.9c5.8,0,10.6,2.3,13.5,6.3c0-2.2-0.1-6-0.1-9.6c0-3.5-0.2-9.8-0.2-14.9c0-3.7,2-5.6,6.3-5.5
		c3.3,0,5,1.7,5,5.4l-0.1,41.9l0.1,19.9C508.9,91.8,506.5,93.2,503.4,93.2z M484.5,83.4c7.3,0,13.5-6,13.5-14.7
		c0-9.2-5-14.3-12.7-14.3c-7.5,0-13.4,6.3-13.4,15.2C472,77.8,477.8,83.4,484.5,83.4z"/>
	<path class="st7" d="M535.8,83.1c3.7,0,7.2-1.2,9.8-2.8c1.2-0.7,2.4-1.3,3.9-1.3c2.4,0,4.6,2.5,4.6,5.3c0,1.9-1.2,3.5-3,4.7
		c-3.7,2.4-8.4,4.1-16.2,4.1c-12.5,0-22.3-10.1-22.5-22.4c0-14.3,10.1-25.8,23.1-25.8c11.8,0,20.3,9.4,20.3,18.7
		c0,5.3-0.8,7.9-7.8,8c-5.6,0.2-12.5,0.1-24.4,0.2C524,78,529,83.1,535.8,83.1z M523.7,64.8c5.2,0,16.3-0.1,20.5-0.4
		c0.7-0.1,1.2-0.4,1.2-0.9c0-5.6-4.6-9.5-9.7-9.5C529,54,524.3,59.4,523.7,64.8z"/>
	<path class="st7" d="M406.5,75c0,4.4,0.1,8.7,0.4,13.2c0,3.7-2.9,4.7-5.8,4.7c-3.4,0-4.3-2.6-5-7.9c-3.1,5.3-8.4,8.2-15.1,8.2
		c-13.6,0-22.2-10.3-22.2-22.8c0-15,10.3-25.4,23.6-25.4c5.7,0,10.9,2.6,13.9,7.2c0.2-1.2,0.4-2.9,0.6-3.8c0.7-2,2.2-3.2,4.5-3.2
		c4.1,0,5.3,2.4,5.3,6.3l-0.1,7.9L406.5,75z M382.4,83.6c7.6,0,13.4-5.8,13.4-14.5c0-9.4-6.3-14.4-12.9-14.4
		c-7.4,0-12.8,6.3-12.8,15.4C370.1,77.9,375.6,83.6,382.4,83.6z"/>
	<path class="st7" d="M350.5,47.1c1.7,0.8,3.1,2,3.1,4c0,2.9-1.3,4.8-4.4,4.8c-2.9,0-6.5-2.4-12.3-2.4c-4.7,0-8.6,2.3-8.6,5.8
		c0,3.8,4.6,4.1,9.6,4.8c9.7,1.3,17.1,4.4,17.1,13.9c0,9.7-7.5,15.2-19.3,15.2c-8.9,0-18-3.1-18-6.7c0-2.9,1.1-5.6,4.4-5.6
		c3.7,0,7.6,3,14.7,3c4.5,0,8.1-2,8.1-5.7c0-3.9-3.5-4.9-9.8-5.9c-8.1-1.1-16.9-3.3-16.9-12.6c0-9.1,9.1-15.2,18.6-15.2
		C342.7,44.7,347.4,45.7,350.5,47.1z"/>
	<g class="st1">
		<line class="st14" x1="225.1" y1="20.9" x2="225.1" y2="117.2"/>
		<line class="st14" x1="214.3" y1="20.9" x2="214.3" y2="117.2"/>
		<line class="st14" x1="217.9" y1="20.9" x2="217.9" y2="117.2"/>
		<line class="st14" x1="221.5" y1="20.9" x2="221.5" y2="117.2"/>
	</g>
	<g class="st1">
		<line class="st14" x1="290.6" y1="20.9" x2="290.6" y2="117.2"/>
		<line class="st14" x1="279.8" y1="20.9" x2="279.8" y2="117.2"/>
		<line class="st14" x1="283.4" y1="20.9" x2="283.4" y2="117.2"/>
		<line class="st14" x1="287" y1="20.9" x2="287" y2="117.2"/>
	</g>
	<g class="st1">
		<line class="st14" x1="321.7" y1="21.1" x2="321.7" y2="117.4"/>
		<line class="st14" x1="310.9" y1="21.1" x2="310.9" y2="117.4"/>
		<line class="st14" x1="314.5" y1="21.1" x2="314.5" y2="117.4"/>
		<line class="st14" x1="318.1" y1="21.1" x2="318.1" y2="117.4"/>
	</g>
	<g class="st1">
		<line class="st14" x1="362.4" y1="20.9" x2="362.4" y2="117.2"/>
		<line class="st14" x1="351.5" y1="20.9" x2="351.5" y2="117.2"/>
		<line class="st14" x1="355.1" y1="20.9" x2="355.1" y2="117.2"/>
		<line class="st14" x1="358.8" y1="20.9" x2="358.8" y2="117.2"/>
	</g>
	<g class="st1">
		<line class="st14" x1="413.9" y1="21.1" x2="413.9" y2="117.4"/>
		<line class="st14" x1="403.1" y1="21.1" x2="403.1" y2="117.4"/>
		<line class="st14" x1="406.7" y1="21.1" x2="406.7" y2="117.4"/>
		<line class="st14" x1="410.3" y1="21.1" x2="410.3" y2="117.4"/>
	</g>
	<g class="st1">
		<line class="st14" x1="463.6" y1="21.1" x2="463.6" y2="117.4"/>
		<line class="st14" x1="452.8" y1="21.1" x2="452.8" y2="117.4"/>
		<line class="st14" x1="456.4" y1="21.1" x2="456.4" y2="117.4"/>
		<line class="st14" x1="460" y1="21.1" x2="460" y2="117.4"/>
	</g>
	<g class="st1">
		<line class="st14" x1="514.7" y1="21.1" x2="514.7" y2="117.4"/>
		<line class="st14" x1="503.9" y1="21.1" x2="503.9" y2="117.4"/>
		<line class="st14" x1="507.5" y1="21.1" x2="507.5" y2="117.4"/>
		<line class="st14" x1="511.1" y1="21.1" x2="511.1" y2="117.4"/>
	</g>
	<g class="st1">
		<line class="st14" x1="180.7" y1="20.9" x2="180.7" y2="117.4"/>
		<line class="st14" x1="169.8" y1="20.9" x2="169.8" y2="117.4"/>
		<line class="st14" x1="172.5" y1="20.9" x2="172.5" y2="117.4"/>
		<line class="st14" x1="177.9" y1="20.9" x2="177.9" y2="117.4"/>
		<line class="st14" x1="175.2" y1="20.9" x2="175.2" y2="117.4"/>
	</g>
	<line class="st12" x1="-39.5" y1="101.3" x2="604" y2="101.3"/>
	<line class="st13" x1="-39.5" y1="117.4" x2="604" y2="117.4"/>
	<line class="st13" x1="169.8" y1="93.3" x2="555.8" y2="93.3"/>
	<line class="st13" x1="-39.5" y1="69.2" x2="604" y2="69.2"/>
	<line class="st12" x1="-39.5" y1="85.3" x2="604" y2="85.3"/>
	<line class="st12" x1="-39.5" y1="53.1" x2="604" y2="53.1"/>
	<line class="st13" x1="-39.5" y1="133.5" x2="604" y2="133.5"/>
	<line class="st13" x1="-39.5" y1="4.8" x2="604" y2="4.8"/>
	<line class="st12" x1="-39.5" y1="165.6" x2="604" y2="165.6"/>
	<line class="st12" x1="-39.5" y1="149.6" x2="604" y2="149.6"/>
	<line class="st13" x1="-39.5" y1="182" x2="604" y2="182"/>
	<line class="st12" x1="-39.5" y1="-11.7" x2="604" y2="-11.7"/>
	<line class="st12" x1="-39.5" y1="-27.8" x2="604" y2="-27.8"/>
	<line class="st12" x1="-39.5" y1="37" x2="604" y2="37"/>
	<line class="st12" x1="-39.5" y1="20.9" x2="604" y2="20.9"/>
	<g class="st1">
		<path class="st14" d="M343.5,117.5"/>
		<path class="st14" d="M343.2,5.1"/>
		<path class="st14" d="M338.1,117.5"/>
		<path class="st14" d="M337.8,5.1"/>
	</g>
	<line class="st13" x1="169.8" y1="45" x2="555.8" y2="45"/>
	<line class="st13" x1="8.7" y1="-44" x2="8.7" y2="182"/>
	<line class="st13" x1="-39.5" y1="-44" x2="-39.5" y2="182"/>
	<line class="st12" x1="-7.3" y1="-44" x2="-7.3" y2="182"/>
	<line class="st12" x1="-23.4" y1="-44" x2="-23.4" y2="181.8"/>
	<line class="st13" x1="137.5" y1="-44" x2="137.5" y2="182"/>
	<line class="st13" x1="169.6" y1="-44" x2="169.6" y2="182"/>
	<line class="st12" x1="185.7" y1="-44" x2="185.7" y2="182"/>
	<line class="st12" x1="201.8" y1="-44" x2="201.8" y2="182"/>
	<line class="st13" x1="234" y1="-44" x2="234" y2="182"/>
	<line class="st12" x1="217.9" y1="-44" x2="217.9" y2="182"/>
	<line class="st12" x1="250.1" y1="-44" x2="250.1" y2="182"/>
	<line class="st12" x1="266.2" y1="-44" x2="266.2" y2="182"/>
	<line class="st13" x1="298.3" y1="-44" x2="298.3" y2="182"/>
	<line class="st12" x1="282.3" y1="-44" x2="282.3" y2="182"/>
	<line class="st12" x1="24.8" y1="-44" x2="24.8" y2="182"/>
	<line class="st12" x1="40.9" y1="-44" x2="40.9" y2="182"/>
	<line class="st13" x1="73.1" y1="-44" x2="73.1" y2="182"/>
	<line class="st12" x1="57" y1="-44" x2="57" y2="182"/>
	<line class="st12" x1="89.2" y1="-44" x2="89.2" y2="182"/>
	<line class="st12" x1="105.3" y1="-44" x2="105.3" y2="182"/>
	<line class="st12" x1="121.4" y1="-44" x2="121.4" y2="182"/>
	<line class="st12" x1="314.4" y1="-44" x2="314.4" y2="182"/>
	<line class="st12" x1="330.5" y1="-44" x2="330.5" y2="182"/>
	<line class="st13" x1="362.7" y1="-44" x2="362.7" y2="182"/>
	<line class="st12" x1="346.6" y1="-44" x2="346.6" y2="182"/>
	<line class="st12" x1="378.8" y1="-44" x2="378.8" y2="182"/>
	<line class="st12" x1="394.9" y1="-44" x2="394.9" y2="182"/>
	<line class="st13" x1="427.1" y1="-44" x2="427.1" y2="182"/>
	<line class="st12" x1="411" y1="-44" x2="411" y2="182"/>
	<line class="st12" x1="443.1" y1="-44" x2="443.1" y2="182"/>
	<line class="st12" x1="459.2" y1="-44" x2="459.2" y2="182"/>
	<line class="st13" x1="491.4" y1="-44" x2="491.4" y2="182"/>
	<line class="st12" x1="475.3" y1="-44" x2="475.3" y2="182"/>
	<line class="st12" x1="507.5" y1="-44" x2="507.5" y2="182"/>
	<line class="st12" x1="523.6" y1="-44" x2="523.6" y2="182"/>
	<line class="st13" x1="555.8" y1="-44" x2="555.8" y2="182"/>
	<line class="st12" x1="539.7" y1="-44" x2="539.7" y2="182"/>
	<line class="st12" x1="571.9" y1="-44" x2="571.9" y2="182"/>
	<line class="st13" x1="604" y1="-44" x2="604" y2="182"/>
	<line class="st12" x1="587.9" y1="-44" x2="587.9" y2="182"/>
	<line class="st12" x1="153.7" y1="-44" x2="153.7" y2="182"/>
	<g class="st1">
		<circle class="st8" cx="234" cy="69.2" r="64.4"/>
	</g>
	<g class="st1">
		<circle class="st8" cx="362.7" cy="69.2" r="64.4"/>
	</g>
	<g class="st1">
		<circle class="st8" cx="491.4" cy="69.2" r="64.4"/>
	</g>
</g>
</svg>
